<?xml version="1.0" encoding="UTF-8" standalone="no"?>
<!-- Generator: Adobe Illustrator 13.0.2, SVG Export Plug-In . SVG Version: 6.00 Build 14948)  -->

<svg
   xmlns:dc="http://purl.org/dc/elements/1.1/"
   xmlns:cc="http://creativecommons.org/ns#"
   xmlns:rdf="http://www.w3.org/1999/02/22-rdf-syntax-ns#"
   xmlns:svg="http://www.w3.org/2000/svg"
   xmlns="http://www.w3.org/2000/svg"
   xmlns:sodipodi="http://sodipodi.sourceforge.net/DTD/sodipodi-0.dtd"
   xmlns:inkscape="http://www.inkscape.org/namespaces/inkscape"
   version="1.1"
   id="Layer_1"
   x="0px"
   y="0px"
   width="123.547px"
   height="123.539px"
   viewBox="-0.258 -0.548 123.547 123.539"
   style="enable-background:new -0.258 -0.548 123.547 123.539;"
   xml:space="preserve"
   inkscape:version="0.48.2 r9819"
   sodipodi:docname="icon.svg"><metadata
   id="metadata3084"><rdf:RDF><cc:Work
       rdf:about=""><dc:format>image/svg+xml</dc:format><dc:type
         rdf:resource="http://purl.org/dc/dcmitype/StillImage" /></cc:Work></rdf:RDF></metadata><defs
   id="defs3082" /><sodipodi:namedview
   pagecolor="#ffffff"
   bordercolor="#666666"
   borderopacity="1"
   objecttolerance="10"
   gridtolerance="10"
   guidetolerance="10"
   inkscape:pageopacity="0"
   inkscape:pageshadow="2"
   inkscape:window-width="912"
   inkscape:window-height="711"
   id="namedview3080"
   showgrid="false"
   inkscape:zoom="3.8206558"
   inkscape:cx="54.765325"
   inkscape:cy="63.847891"
   inkscape:window-x="0"
   inkscape:window-y="0"
   inkscape:window-maximized="0"
   inkscape:current-layer="Layer_1" />
<g
   id="g3066">
	<path
   style="fill:#231F20;"
   d="M109.648,122.902c8.148,0,14.766-6.617,14.766-14.773V14.113c0-8.156-6.617-14.773-14.766-14.773   H15.633c-8.156,0-14.773,6.617-14.773,14.773v94.016c0,8.156,6.617,14.773,14.773,14.773H109.648z"
   id="path3068" />
	<path
   style="fill:#FFFFFF;"
   d="M15.633,1.832c-6.766,0-12.266,5.516-12.266,12.281v94.016c0,6.766,5.5,12.258,12.266,12.258h94.016   c6.758,0,12.25-5.492,12.25-12.258V14.113c0-6.766-5.492-12.281-12.25-12.281H15.633z"
   id="path3070" />
	<path
   style="fill:#231F20;"
   d="M111.961,112.527c-2.125,0-4.195-0.492-6.031-1.32c-1.875-0.883-4-1.391-6.219-1.391   c-2.203,0-4.328,0.508-6.203,1.391c-1.859,0.828-3.906,1.32-6.055,1.32c-2.125,0-4.203-0.492-6.031-1.32   c-1.883-0.883-4.008-1.391-6.227-1.391c-2.195,0-4.32,0.508-6.203,1.391c-1.852,0.828-3.906,1.32-6.055,1.32   s-4.195-0.492-6.031-1.32c-1.883-0.883-4.008-1.391-6.219-1.391c-2.219,0-4.344,0.508-6.219,1.391   c-1.836,0.828-3.898,1.32-6.047,1.32c-2.133,0-4.195-0.492-6.039-1.32c-1.883-0.883-4.008-1.391-6.219-1.391   c-2.203,0-4.328,0.508-6.211,1.391c-1.844,0.828-3.891,1.32-6.039,1.32v-9.062c2.148,0,4.195-0.484,6.039-1.32   c1.883-0.852,4.008-1.359,6.211-1.359c2.211,0,4.336,0.508,6.219,1.359c1.844,0.836,3.906,1.32,6.039,1.32   c2.148,0,4.211-0.484,6.047-1.32c1.875-0.852,4-1.359,6.219-1.359c2.211,0,4.336,0.508,6.219,1.359   c1.836,0.836,3.883,1.32,6.031,1.32s4.203-0.484,6.055-1.32c1.883-0.852,4.008-1.359,6.203-1.359c2.219,0,4.344,0.508,6.227,1.359   c1.828,0.836,3.906,1.32,6.031,1.32c2.148,0,4.195-0.484,6.055-1.32c1.875-0.852,4-1.359,6.203-1.359   c2.219,0,4.344,0.508,6.219,1.359c1.836,0.836,3.906,1.32,6.031,1.32V112.527z"
   id="path3072" />
	<polygon
   style="fill:#231F20;"
   points="72.609,6.52 72.609,74.684 16.781,74.684  "
   id="polygon3074" />
	<path
   style="fill:#231F20;"
   d="M77.906,22.238c16.43,7.641,35.938,28.008,33.375,52.445H77.906V22.238L77.906,22.238z"
   id="path3076" />
	<path
   style="fill:#231F20;"
   d="M104.227,79.613H88.992H29.961V93.09c0.836,0.219,1.664,0.461,2.422,0.828   c1.844,0.805,3.906,1.297,6.039,1.297c2.148,0,4.211-0.492,6.047-1.297c1.875-0.875,4-1.391,6.219-1.391   c2.211,0,4.336,0.516,6.219,1.391c1.836,0.805,3.883,1.297,6.031,1.297s4.203-0.492,6.055-1.297   c1.883-0.875,4.008-1.391,6.203-1.391c2.219,0,4.344,0.516,6.227,1.391c1.828,0.805,3.906,1.297,6.031,1.297   c0.414,0,0.805-0.102,1.195-0.148c0.047,0,0.047,0.047,0.094,0.047c0.273,0,0.469-0.117,0.734-0.117   c0.492-0.07,0.977-0.125,1.469-0.242c4.391-0.906,7.227-4.328,7.227-4.328l8.539-10.812H104.227z"
   id="path3078" />
</g>
<rect
   style="fill:#231f20;fill-opacity:1;fill-rule:evenodd;stroke:#000000;stroke-width:1px;stroke-linecap:butt;stroke-linejoin:miter;stroke-opacity:0"
   id="rect3086"
   width="2.6173518"
   height="52.870506"
   x="33.244102"
   y="12.015286" /><rect
   style="fill:#ff0000;fill-opacity:1;stroke:#000000;stroke-opacity:0"
   id="rect3858"
   width="17.797989"
   height="13.086759"
   x="15.18064"
   y="12.563289"
   transform="translate(-0.258,-0.5480022)" /></svg>